<?xml version="1.0" encoding="iso-8859-1"?> 
<svg class="icon icon-allo" version="1.1" id="Capa_1" xmlns="http://www.w3.org/2000/svg" xmlns:xlink="http://www.w3.org/1999/xlink" width="32" height="32" viewBox="0 0 512.002 512.002" style="enable-background:new 0 0 512.002 512.002;" xml:space="preserve">
<path  class="allo1" style="" d="M274.562,0.672C200.226-4.704,127.458,22.496,74.978,74.976S-4.606,200.192,0.642,274.528C10.05,407.68,126.114,512,264.898,512h215.104c17.664,0,32-14.336,32-32V264.896C512.002,126.112,407.682,10.048,274.562,0.672z"/>
<path  class="allo2" d="M384.002,368c0,6.464-3.904,12.32-9.888,14.784c-1.952,0.8-4.064,1.216-6.112,1.216c-4.16,0-8.256-1.632-11.328-4.672l-22.272-22.272C312.226,374.528,284.898,384,256.002,384c-70.592,0-128-57.408-128-128s57.408-128,128-128s128,57.408,128,128V368z"/> 
</svg>