<svg class="icon icon-envelope" xmlns="http://www.w3.org/2000/svg" width="32" height="32" viewBox="0 0 128 128"><path class="foreground" fill="gray" d="M65.438 65.221l61.43-38.413c.702-.5 1.303-1.627 1.303-2.753V12.794c0-1.001-.701-1.877-1.503-1.877H1.503c-.802.125-1.503 1-1.503 2.002V24.18c0 1.001.601 2.252 1.303 2.753l61.43 38.413c.801.376 2.004.376 2.705-.125z"/><path class="foreground" fill="gray" d="M62.7 75.388L1.3 36.876c-.7-.503-1.3 0-1.3 1.007v76.772c0 1.006.7 1.887 1.5 1.887h125c.8 0 1.5-.88 1.5-1.887V37.883c0-1.007-.6-1.51-1.3-1.007L65.3 75.388c-.7.503-1.9.503-2.6 0z"/></svg>