<svg class="icon icon-facebook" xmlns="http://www.w3.org/2000/svg" width="32" height="32" viewBox="0 0 16 16"><path class="background" fill="#3b5999" d="M.875 0A.87.87 0 0 0 0 .875v14.25A.87.87 0 0 0 .875 16h7.656V9.812H6.47V7.376H8.53V5.594c0-2.067 1.282-3.188 3.125-3.188.883 0 1.623.065 1.844.094v2.156l-1.25.032c-1.003 0-1.219.457-1.219 1.156v1.531h2.406l-.312 2.438h-2.094V16h4.094a.87.87 0 0 0 .875-.875V.875A.87.87 0 0 0 15.125 0H.875z"/><path class="foreground" fill="#fff" d="M11.04 16V9.804h2.08l.31-2.415h-2.39V5.848c0-.7.194-1.176 1.196-1.176h1.279v-2.16c-.221-.03-.98-.095-1.863-.095-1.844 0-3.106 1.125-3.106 3.191V7.39H6.461v2.415h2.085V16h2.494z"/></svg>