<svg class="icon icon-googleplus" xmlns="http://www.w3.org/2000/svg" width="32" height="32" viewBox="0 0 16 16"><path class="background" d="M.875 0A.87.87 0 0 0 0 .875v14.25A.87.87 0 0 0 .875 16h14.25a.87.87 0 0 0 .875-.875V.875A.87.87 0 0 0 15.125 0H.875zM7 2.625h2.75l-.875.563H8c.322.266 1 .838 1 1.906C9 6.132 8.4 6.6 7.812 7.062c-.182.183-.375.379-.375.688 0 .308.222.498.375.625l.5.375c.617.52 1.126 1 1.126 1.969 0 1.32-1.216 2.656-3.626 2.656-2.031 0-3.062-.96-3.062-2 0-.505.298-1.227 1.125-1.719C4.743 9.123 5.869 9.043 6.5 9c-.197-.253-.375-.503-.375-.938 0-.238.056-.393.125-.562-.154.014-.297.031-.438.031C4.329 7.531 3.5 6.44 3.5 5.344c0-.645.273-1.356.875-1.875.799-.66 1.868-.844 2.625-.844zm-1 .531c-.365 0-.775.188-1 .469-.238.295-.313.665-.313 1.031 0 .94.545 2.5 1.75 2.5.35 0 .775-.181 1-.406.323-.324.313-.778.313-1.031 0-1.011-.588-2.563-1.75-2.563zm5.125 2.563h.688v1.406h1.437v.719h-1.438V9.25h-.687V7.844H9.75v-.719h1.375V5.719zM6.687 9.406c-.126 0-.911.021-1.5.219C4.88 9.737 4 10.065 4 11.063c0 .996.939 1.718 2.438 1.718 1.345 0 2.062-.63 2.062-1.5 0-.718-.435-1.117-1.5-1.875-.112-.014-.172 0-.313 0z"/><path class="foreground" d="M7.006 2.63c-.757 0-1.857.185-2.656.845a2.49 2.49 0 0 0-.875 1.875c0 1.094.828 2.187 2.313 2.187.14 0 .283-.017.437-.031-.07.169-.125.324-.125.562 0 .435.21.685.406.938-.63.043-1.788.123-2.656.656-.827.492-1.094 1.214-1.094 1.719 0 1.04 1 2 3.032 2 2.409 0 3.656-1.337 3.656-2.656 0-.97-.54-1.45-1.156-1.97l-.5-.374c-.154-.128-.375-.317-.375-.625 0-.31.223-.506.406-.688.588-.462 1.156-.93 1.156-1.968 0-1.068-.678-1.64-1-1.907h.875l.906-.562h-2.75zm-1.03.532c1.161 0 1.78 1.552 1.78 2.563 0 .253-.021.707-.343 1.03a1.487 1.487 0 0 1-.97.407c-1.204 0-1.75-1.56-1.75-2.5 0-.366.075-.736.313-1.031.225-.281.604-.469.97-.469zM11.1 5.725V7.13H9.725v.719H11.1v1.406h.719V7.85h1.406v-.72H11.82V5.726H11.1zM6.663 9.412c.14 0 .232-.014.343 0 1.066.758 1.5 1.157 1.5 1.875 0 .87-.717 1.5-2.062 1.5-1.499 0-2.438-.722-2.438-1.719 0-.996.88-1.326 1.188-1.437.588-.198 1.342-.219 1.469-.219z"/></svg>