<svg class="icon icon-linkedin" xmlns="http://www.w3.org/2000/svg" width="32" height="32" viewBox="0 0 144 144"><path class="background" d="M10.625 0C4.761 0 0 4.647 0 10.375v123.25C0 139.359 4.761 144 10.625 144h122.719c5.874 0 10.656-4.64 10.656-10.375V10.375C144 4.647 139.218 0 133.344 0H10.625zm21.406 19.813c6.828 0 12.375 5.575 12.375 12.406 0 6.837-5.547 12.375-12.375 12.375-6.846 0-12.375-5.538-12.375-12.375.001-6.83 5.53-12.407 12.375-12.407zM97.094 52.28c21.628 0 25.625 14.217 25.625 32.719v37.719h-21.344V89.28c0-7.969-.172-18.219-11.125-18.219-11.113 0-12.813 8.694-12.813 17.657v34H56.094V54h20.5v9.375h.281c2.852-5.403 9.828-11.094 20.219-11.094zM21.344 54h21.375v68.719H21.344V54z"/><path class="foreground" d="M21.351 53.985H42.71v68.722H21.351V53.985zm10.684-34.16c6.828 0 12.377 5.549 12.377 12.38 0 6.837-5.549 12.386-12.377 12.386-6.846 0-12.387-5.549-12.387-12.386.001-6.83 5.542-12.38 12.387-12.38M56.107 53.985h20.485v9.39h.286c2.852-5.403 9.818-11.099 20.209-11.099 21.628 0 25.621 14.234 25.621 32.736v37.694h-21.344v-33.42c0-7.969-.146-18.22-11.099-18.22-11.113 0-12.819 8.681-12.819 17.644v33.996h-21.34V53.985z"/></svg>