<svg class="icon icon-plunker" version="1" xmlns="http://www.w3.org/2000/svg" width="32" height="32" viewBox="0 0 256 256"><path class="hplnkr" d="M46.1 26.1c-10.2 2-17.9 9.8-20.1 20.3-.7 3.5-1 30.9-.8 84.6l.3 79.5 2.6 5.6c3.1 6.5 7.7 10.4 14.5 12.5 7 2.1 162.8 2.1 169.8 0 6.8-2.1 11.4-6 14.5-12.5l2.6-5.6v-165l-2.3-5.1c-2.9-6.3-6.2-9.6-12.7-12.6l-5-2.3-79.5-.2c-43.7 0-81.5.3-83.9.8zm163.4 15.1c5.7 2.6 5.5-.2 5.5 86.7 0 56.5-.3 80.7-1.1 82.4-2.4 5.3 0 5.2-86.4 5.2s-84 .1-86.4-5.2c-.8-1.7-1.1-26-1.1-82.7V47.3l2.1-2.7c1.2-1.5 3.1-3.2 4.3-3.6 3.5-1.4 160-1.2 163.1.2z"/><path d="M112 101.2v44.3l-22.3-22.3C77.5 111 67.1 101 66.7 101c-.4 0-.7 8.6-.7 19.2v19.2l30 30.1 30 30 30-30 30-30v-40L163.5 122 141 144.5V57h-29v44.2z"/></svg>