<?xml version="1.0" standalone="no"?>
<!DOCTYPE svg PUBLIC "-//W3C//DTD SVG 20010904//EN"
 "http://www.w3.org/TR/2001/REC-SVG-20010904/DTD/svg10.dtd">
<svg class="icon icon-plunker" version="1.0" xmlns="http://www.w3.org/2000/svg" width="32" height="32" viewBox="0 0 256.000000 256.000000" preserveAspectRatio="xMidYMid meet">

<g transform="translate(0.000000,256.000000) scale(0.100000,-0.100000)"  stroke="none">
<path class="hplnkr" d="M461 2299 c-102 -20 -179 -98 -201 -203 -7 -35 -10 -309 -8 -846 l3
-795 26 -56 c31 -65 77 -104 145 -125 70 -21 1628 -21 1698 0 68 21 114 60
145 125 l26 56 0 825 0 825 -23 51 c-29 63 -62 96 -127 126 l-50 23 -795 2
c-437 0 -815 -3 -839 -8z m1634 -151 c57 -26 55 2 55 -867 0 -565 -3 -807 -11
-824 -24 -53 0 -52 -864 -52 -864 0 -840 -1 -864 52 -8 17 -11 260 -11 827 l0
803 21 27 c12 15 31 32 43 36 35 14 1600 12 1631 -2z"/>
<path d="M1120 1548 l0 -443 -223 223 c-122 122 -226 222 -230 222 -4 0 -7
-86 -7 -192 l0 -192 300 -301 300 -300 300 300 300 300 0 200 0 200 -225 -225
-225 -225 0 438 0 437 -145 0 -145 0 0 -442z"/>
</g>
</svg>
