<svg class="icon icon-twitter" xmlns="http://www.w3.org/2000/svg" width="32" height="32" viewBox="0 0 16 16"><path class="foreground" d="M16 3.039a6.563 6.563 0 0 1-1.885.517 3.292 3.292 0 0 0 1.443-1.816 6.572 6.572 0 0 1-2.084.796A3.282 3.282 0 0 0 7.88 5.53a9.32 9.32 0 0 1-6.766-3.428A3.28 3.28 0 0 0 2.13 6.483a3.27 3.27 0 0 1-1.487-.411v.041a3.284 3.284 0 0 0 2.633 3.218 3.289 3.289 0 0 1-1.483.056 3.286 3.286 0 0 0 3.067 2.28A6.587 6.587 0 0 1 0 13.024 9.293 9.293 0 0 0 5.032 14.5c6.038 0 9.34-5 9.34-9.338 0-.142-.003-.284-.01-.424A6.668 6.668 0 0 0 16 3.038z"/></svg>