<svg class="icon icon-wechat" width="32" height="32" xmlns="http://www.w3.org/2000/svg" viewBox="0 0 512 512"><path class="wechat1" d="M174.764 22.279c-92.092 0-166.747 66.36-166.747 148.22 0 39.668 17.531 75.696 46.081 102.296L33.67 327.27l55.454-29.575c25.032 13.345 54.325 21.024 85.64 21.024 92.092 0 166.747-66.36 166.747-148.22s-74.655-148.22-166.747-148.22z"/><path class="wechat2" d="M33.67 167.648c0-62.575 40.455-116.426 98.538-140.491C60.732 43.88 8.017 101.715 8.017 170.499c0 39.668 17.531 75.696 46.081 102.296L33.67 327.27l55.454-29.575c23.087 12.308 49.802 19.78 78.38 20.87C91.177 304.459 33.67 242.256 33.67 167.648z"/><g fill="#666"><circle cx="221.795" cy="164.802" r="25.653"/><circle cx="127.733" cy="164.802" r="25.653"/></g><path class="wechat3" d="M503.983 327.27c0-75.562-68.913-136.818-153.921-136.818s-153.92 61.256-153.92 136.818 68.913 136.818 153.921 136.818c18.994 0 37.18-3.066 53.978-8.659l57.187 34.313-12.732-57.292c33.903-25.096 55.487-62.895 55.487-105.18z"/><path class="wechat4" d="M230.347 327.27c0-70.423 59.86-128.409 136.818-135.973a174.783 174.783 0 0 0-17.102-.845c-85.008 0-153.921 61.256-153.921 136.818s68.913 136.818 153.921 136.818a174.6 174.6 0 0 0 17.124-.843c-76.968-7.555-136.84-65.545-136.84-135.975z"/><g fill="#666"><circle cx="298.756" cy="327.273" r="25.653"/><circle cx="401.37" cy="327.273" r="25.653"/></g><path d="M255.466 164.798c0-18.566-15.105-33.67-33.67-33.67s-33.67 15.105-33.67 33.67 15.105 33.67 33.67 33.67 33.67-15.103 33.67-33.67zm-51.307 0c0-9.725 7.912-17.637 17.637-17.637 9.725 0 17.637 7.912 17.637 17.637 0 9.725-7.912 17.637-17.637 17.637-9.725 0-17.637-7.912-17.637-17.637zM161.403 164.798c0-18.566-15.105-33.67-33.67-33.67s-33.67 15.105-33.67 33.67 15.105 33.67 33.67 33.67 33.67-15.103 33.67-33.67zm-51.307 0c0-9.725 7.912-17.637 17.637-17.637s17.637 7.912 17.637 17.637c0 9.725-7.912 17.637-17.637 17.637s-17.637-7.912-17.637-17.637z"/><path d="M512 327.27c0-40.141-17.926-77.462-50.476-105.085a8.017 8.017 0 0 0-10.374 12.225c28.901 24.528 44.818 57.505 44.818 92.86 0 38.173-19.04 74.162-52.24 98.736a8.017 8.017 0 0 0-3.056 8.182l8.685 39.081-41.19-24.715a8.019 8.019 0 0 0-6.657-.732c-16.44 5.474-33.748 8.25-51.446 8.25-80.451 0-145.904-57.78-145.904-128.802s65.453-128.802 145.904-128.802c26.433 0 52.322 6.306 74.871 18.239a8.018 8.018 0 0 0 7.499-14.171c-24.85-13.15-53.333-20.101-82.37-20.101-.355 0-.707.01-1.06.012.336-3.973.526-7.968.526-11.948 0-86.15-78.399-156.237-174.764-156.237S0 84.35 0 170.499c0 17.931 3.369 35.515 10.014 52.265 1.695 4.274 6.813 6.263 10.956 4.255 3.726-1.806 5.474-6.32 3.947-10.167-5.896-14.86-8.885-30.455-8.885-46.353 0-77.309 71.206-140.204 158.731-140.204S333.495 93.19 333.495 170.499c0 4.253-.223 8.525-.654 12.756-74.909 7.116-134.723 60.097-143.574 126.857-4.808.385-9.673.59-14.503.59-28.915 0-57.224-6.945-81.868-20.082a8.015 8.015 0 0 0-7.544.001l-36.721 19.584 12.973-34.595a8.014 8.014 0 0 0-2.042-8.68c-7.636-7.113-14.442-14.95-20.231-23.292a8.018 8.018 0 0 0-13.173 9.142c5.437 7.835 11.673 15.262 18.583 22.135l-18.577 49.541c-2.533 6.754 4.885 13.3 11.279 9.888l51.738-27.593c26.037 13.087 55.529 19.986 85.583 19.986 4.449 0 8.93-.155 13.375-.455-.002.33-.014.658-.014.99 0 79.862 72.644 144.835 161.937 144.835 18.158 0 35.958-2.667 52.969-7.933l54.071 32.445c5.928 3.552 13.443-1.897 11.95-8.614l-11.622-52.3C492.178 408.183 512 368.94 512 327.27z"/><path d="M265.086 327.27c0 18.566 15.105 33.67 33.67 33.67 18.566 0 33.67-15.105 33.67-33.67 0-18.566-15.105-33.67-33.67-33.67-18.566 0-33.67 15.105-33.67 33.67zm51.306 0c0 9.725-7.912 17.637-17.637 17.637-9.725 0-17.637-7.912-17.637-17.637s7.912-17.637 17.637-17.637c9.726.001 17.637 7.914 17.637 17.637zM401.37 293.6c-18.566 0-33.67 15.105-33.67 33.67 0 18.566 15.105 33.67 33.67 33.67 18.566 0 33.67-15.105 33.67-33.67s-15.105-33.67-33.67-33.67zm0 51.307c-9.725 0-17.637-7.912-17.637-17.637s7.912-17.637 17.637-17.637c9.725 0 17.637 7.912 17.637 17.637s-7.913 17.637-17.637 17.637z"/></svg>